<svg id="visual" viewBox="0 0 1920 1080" width="1920" height="1080" xmlns="http://www.w3.org/2000/svg" xmlns:xlink="http://www.w3.org/1999/xlink" version="1.1"><path d="M0 152L29.2 144.8C58.3 137.7 116.7 123.3 174.8 141.3C233 159.3 291 209.7 349.2 233C407.3 256.3 465.7 252.7 523.8 236.5C582 220.3 640 191.7 698.2 168.3C756.3 145 814.7 127 872.8 143.2C931 159.3 989 209.7 1047.2 209.7C1105.3 209.7 1163.7 159.3 1221.8 145C1280 130.7 1338 152.3 1396.2 177.5C1454.3 202.7 1512.7 231.3 1570.8 227.7C1629 224 1687 188 1745.2 184.5C1803.3 181 1861.7 210 1890.8 224.5L1920 239L1920 0L1890.8 0C1861.7 0 1803.3 0 1745.2 0C1687 0 1629 0 1570.8 0C1512.7 0 1454.3 0 1396.2 0C1338 0 1280 0 1221.8 0C1163.7 0 1105.3 0 1047.2 0C989 0 931 0 872.8 0C814.7 0 756.3 0 698.2 0C640 0 582 0 523.8 0C465.7 0 407.3 0 349.2 0C291 0 233 0 174.8 0C116.7 0 58.3 0 29.2 0L0 0Z" fill="#111325"></path><path d="M0 595L29.2 541C58.3 487 116.7 379 174.8 355.7C233 332.3 291 393.7 349.2 415.3C407.3 437 465.7 419 523.8 404.5C582 390 640 379 698.2 411.3C756.3 443.7 814.7 519.3 872.8 550C931 580.7 989 566.3 1047.2 535.7C1105.3 505 1163.7 458 1221.8 461.5C1280 465 1338 519 1396.2 555C1454.3 591 1512.7 609 1570.8 578.5C1629 548 1687 469 1745.2 436.7C1803.3 404.3 1861.7 418.7 1890.8 425.8L1920 433L1920 237L1890.8 222.5C1861.7 208 1803.3 179 1745.2 182.5C1687 186 1629 222 1570.8 225.7C1512.7 229.3 1454.3 200.7 1396.2 175.5C1338 150.3 1280 128.7 1221.8 143C1163.7 157.3 1105.3 207.7 1047.2 207.7C989 207.7 931 157.3 872.8 141.2C814.7 125 756.3 143 698.2 166.3C640 189.7 582 218.3 523.8 234.5C465.7 250.7 407.3 254.3 349.2 231C291 207.7 233 157.3 174.8 139.3C116.7 121.3 58.3 135.7 29.2 142.8L0 150Z" fill="#0c1841"></path><path d="M0 789L29.2 738.7C58.3 688.3 116.7 587.7 174.8 550C233 512.3 291 537.7 349.2 555.7C407.3 573.7 465.7 584.3 523.8 578.8C582 573.3 640 551.7 698.2 580.5C756.3 609.3 814.7 688.7 872.8 715.7C931 742.7 989 717.3 1047.2 670.5C1105.3 623.7 1163.7 555.3 1221.8 573.3C1280 591.3 1338 695.7 1396.2 735.3C1454.3 775 1512.7 750 1570.8 715.8C1629 681.7 1687 638.3 1745.2 623.8C1803.3 609.3 1861.7 623.7 1890.8 630.8L1920 638L1920 431L1890.8 423.8C1861.7 416.7 1803.3 402.3 1745.2 434.7C1687 467 1629 546 1570.8 576.5C1512.7 607 1454.3 589 1396.2 553C1338 517 1280 463 1221.8 459.5C1163.7 456 1105.3 503 1047.2 533.7C989 564.3 931 578.7 872.8 548C814.7 517.3 756.3 441.7 698.2 409.3C640 377 582 388 523.8 402.5C465.7 417 407.3 435 349.2 413.3C291 391.7 233 330.3 174.8 353.7C116.7 377 58.3 485 29.2 539L0 593Z" fill="#001b5e"></path><path d="M0 1005L29.2 1001.5C58.3 998 116.7 991 174.8 987.5C233 984 291 984 349.2 978.5C407.3 973 465.7 962 523.8 953C582 944 640 937 698.2 940.7C756.3 944.3 814.7 958.7 872.8 962.2C931 965.7 989 958.3 1047.2 949.3C1105.3 940.3 1163.7 929.7 1221.8 933.3C1280 937 1338 955 1396.2 967.7C1454.3 980.3 1512.7 987.7 1570.8 991.3C1629 995 1687 995 1745.2 980.5C1803.3 966 1861.7 937 1890.8 922.5L1920 908L1920 636L1890.8 628.8C1861.7 621.7 1803.3 607.3 1745.2 621.8C1687 636.3 1629 679.7 1570.8 713.8C1512.7 748 1454.3 773 1396.2 733.3C1338 693.7 1280 589.3 1221.8 571.3C1163.7 553.3 1105.3 621.7 1047.2 668.5C989 715.3 931 740.7 872.8 713.7C814.7 686.7 756.3 607.3 698.2 578.5C640 549.7 582 571.3 523.8 576.8C465.7 582.3 407.3 571.7 349.2 553.7C291 535.7 233 510.3 174.8 548C116.7 585.7 58.3 686.3 29.2 736.7L0 787Z" fill="#001c7b"></path><path d="M0 1081L29.2 1081C58.3 1081 116.7 1081 174.8 1081C233 1081 291 1081 349.2 1081C407.3 1081 465.7 1081 523.8 1081C582 1081 640 1081 698.2 1081C756.3 1081 814.7 1081 872.8 1081C931 1081 989 1081 1047.2 1081C1105.3 1081 1163.7 1081 1221.8 1081C1280 1081 1338 1081 1396.2 1081C1454.3 1081 1512.7 1081 1570.8 1081C1629 1081 1687 1081 1745.2 1081C1803.3 1081 1861.7 1081 1890.8 1081L1920 1081L1920 906L1890.8 920.5C1861.7 935 1803.3 964 1745.2 978.5C1687 993 1629 993 1570.8 989.3C1512.7 985.7 1454.3 978.3 1396.2 965.7C1338 953 1280 935 1221.8 931.3C1163.7 927.7 1105.3 938.3 1047.2 947.3C989 956.3 931 963.7 872.8 960.2C814.7 956.7 756.3 942.3 698.2 938.7C640 935 582 942 523.8 951C465.7 960 407.3 971 349.2 976.5C291 982 233 982 174.8 985.5C116.7 989 58.3 996 29.2 999.5L0 1003Z" fill="#001898"></path></svg>